<svg width="24" height="24" viewBox="0 0 24 24" fill="none" xmlns="http://www.w3.org/2000/svg">
<path d="M23.3019 9.81689H12.0001V14.4578H18.4582C18.3246 15.1919 18.0436 15.8912 17.6321 16.5136C17.2205 17.136 16.6871 17.6685 16.0639 18.0789V21.0889H19.942C21.1234 19.9513 22.0524 18.578 22.6688 17.0583C23.2853 15.5385 23.5753 13.9062 23.5201 12.2672C23.5205 11.4456 23.4475 10.6255 23.3019 9.81689V9.81689Z" fill="#4285F4"/>
<path d="M19.9419 21.0889L16.0638 18.0789C14.8538 18.8574 13.4386 19.2563 12.0001 19.2243C10.504 19.2057 9.05148 18.7184 7.84698 17.831C6.64249 16.9437 5.7467 15.7009 5.28575 14.2778L1.27637 14.2778V17.3831C2.27457 19.3712 3.80617 21.0426 5.69995 22.2104C7.59373 23.3782 9.77505 23.9963 12.0001 23.9958C14.9213 24.075 17.7623 23.0351 19.9419 21.0889Z" fill="#34A853"/>
<path d="M4.90953 11.999C4.91122 11.2227 5.03827 10.4518 5.28576 9.71595V6.61072H1.27638C0.43707 8.28282 0 10.1278 0 11.9986C0 13.8695 0.43707 15.7145 1.27638 17.3866L5.28576 14.2813C5.03834 13.5458 4.9113 12.7751 4.90953 11.999Z" fill="#FBBC05"/>
<path d="M16.5869 6.56414L20.0288 3.12298C17.8564 1.08447 14.9792 -0.0343878 12.0001 0.000805769C9.77545 -6.6485e-05 7.59439 0.617583 5.70064 1.78473C3.8069 2.95188 2.27509 4.62254 1.2764 6.61001L5.28578 9.71525C5.74673 8.29214 6.64252 7.04941 7.84701 6.16205C9.05151 5.27469 10.504 4.78739 12.0001 4.76875C13.7057 4.74054 15.3538 5.38562 16.5869 6.56414Z" fill="#EA4335"/>
</svg>
